<?xml version="1.0" encoding="UTF-8"?>
<svg version="1.1" viewBox="0 0 361.9 361.9" xmlns="http://www.w3.org/2000/svg">
	<path d="m171.3 362c-1.848-0.1376-5.448-0.2706-8-0.2956-4.198-0.0411-6.1-0.233-12.8-1.292-11.39-1.799-25.4-5.752-37.44-10.56-4.997-1.996-17.49-7.936-20.16-9.587-0.792-0.4892-2.52-1.51-3.84-2.269-4.477-2.574-15.18-9.732-18.17-12.15-0.6528-0.5281-2.771-2.239-4.707-3.802-4.144-3.345-11.38-9.993-15.25-14.01-5.345-5.547-6.958-7.4-13.45-15.46-2.573-3.192-9.523-13.36-11.72-17.15-0.6122-1.056-1.738-3-2.502-4.32-1.159-2.003-6.223-11.95-7.753-15.23-0.515-1.103-2.291-5.399-3.627-8.773-1.051-2.654-4.509-12.88-5.034-14.88-0.1835-0.7013-0.6956-2.643-1.138-4.315-0.9669-3.654-2.334-9.631-2.729-11.93-0.1576-0.9176-0.5865-3.396-0.9532-5.508-1.876-10.8-1.878-48.32-3e-3 -58.24 0.1663-0.88 0.6085-3.328 0.9828-5.44 0.8017-4.525 1.227-6.381 3.188-13.92 0.9341-3.591 4.789-15.21 6.054-18.24 0.5503-1.32 1.425-3.48 1.944-4.8 1.108-2.816 6.994-14.87 8.28-16.96 0.488-0.792 1.509-2.52 2.269-3.84 10.09-17.52 25.9-35.93 41.82-48.69 5.363-4.297 6.652-5.296 7.943-6.154 0.704-0.4677 2.216-1.5 3.36-2.293 3.628-2.516 7.457-5.018 9.44-6.168 1.056-0.6122 3-1.738 4.32-2.502 2.003-1.159 11.95-6.223 15.23-7.753 1.103-0.515 5.399-2.291 8.773-3.627 2.654-1.051 12.88-4.509 14.88-5.034 0.7013-0.1835 2.643-0.6958 4.315-1.138 3.859-1.021 10.65-2.519 13.76-3.036 1.32-0.2191 3.552-0.6091 4.96-0.8667s6.52-0.6334 11.36-0.8351c18.29-0.7623 38.46-0.2966 45.6 1.053 0.88 0.1663 3.328 0.6085 5.44 0.9828 4.536 0.8037 6.532 1.261 13.92 3.19 4.438 1.159 14.52 4.555 19.84 6.683 5.004 2.002 17.5 7.944 20.16 9.589 0.792 0.4892 2.52 1.511 3.84 2.271 17.52 10.09 35.93 25.9 48.69 41.82 4.297 5.363 5.296 6.652 6.154 7.943 0.4677 0.704 1.5 2.216 2.293 3.36 2.516 3.628 5.018 7.457 6.168 9.44 0.6123 1.056 1.738 3 2.502 4.32 1.159 2.003 6.223 11.95 7.753 15.23 0.515 1.103 2.291 5.399 3.627 8.773 1.051 2.654 4.509 12.88 5.034 14.88 0.1835 0.7013 0.6956 2.643 1.138 4.315 0.9669 3.654 2.334 9.631 2.729 11.93 0.1576 0.9176 0.5865 3.396 0.9532 5.508 1.876 10.8 1.878 48.32 3e-3 58.24-0.1663 0.88-0.6085 3.328-0.9828 5.44-0.8037 4.536-1.261 6.532-3.19 13.92-1.159 4.438-4.555 14.52-6.683 19.84-2.002 5.004-7.944 17.5-9.59 20.16-0.4892 0.792-1.511 2.52-2.271 3.84-9.898 17.19-25.5 35.48-40.94 47.96-1.657 1.34-3.673 2.969-4.48 3.62-3.192 2.573-13.36 9.523-17.15 11.72-1.056 0.6123-3 1.738-4.32 2.502-2.003 1.159-11.95 6.223-15.23 7.753-1.103 0.515-5.399 2.291-8.773 3.627-2.654 1.051-12.88 4.509-14.88 5.034-0.7013 0.1835-2.643 0.6956-4.315 1.138-3.654 0.9669-9.631 2.334-11.93 2.729-0.9176 0.1576-3.396 0.5874-5.508 0.9552-5.872 1.023-31.47 1.865-39.2 1.29zm21.92-47.38c2.112-0.1698 4.74-0.452 5.84-0.627s2.972-0.4711 4.16-0.6579c10.05-1.581 22.96-5.515 32.88-10.02 8.427-3.829 17.51-9.15 24.65-14.44 6.582-4.878 18.16-15.62 21.92-20.34 0.7838-0.9831 2.264-2.825 3.29-4.094 20.01-24.75 30.66-57.51 29.02-89.24-0.4036-7.795-0.4394-8.14-1.625-15.68-1.581-10.06-5.515-22.96-10.02-32.88-3.829-8.427-9.15-17.51-14.44-24.65-4.923-6.642-15.56-18.1-20.34-21.92-0.9831-0.7848-2.825-2.266-4.094-3.292-18.69-15.11-42.2-25.04-66.76-28.21-10.62-1.368-24.94-1.234-35.04 0.329-6.314 0.9772-6.911 1.094-12.48 2.436-14.85 3.577-29.75 10.08-42.28 18.44-5.122 3.42-5.881 3.979-11.16 8.228-4.143 3.333-14.18 13.09-16.65 16.19-0.7848 0.9831-2.266 2.825-3.292 4.094-20.01 24.75-30.66 57.51-29.02 89.24 0.4036 7.795 0.4394 8.14 1.625 15.68 1.581 10.05 5.515 22.96 10.02 32.88 4.923 10.83 10.65 20.05 18.6 29.91 3.584 4.447 13.15 14.22 16.77 17.14 5.042 4.06 6.028 4.829 8.507 6.632 20.38 14.82 45.41 23.76 70.56 25.19 5.099 0.2905 13.4 0.1488 19.36-0.3308z" stroke-width=".32"/>
</svg>
